/vscmnt/brussel_pixiu_data/_data_brussel/112/vsc11236/PredSimResults/SUBJ06mtu3D/worker9.mot
version=1
nRows=9
nColumns=50
inDegrees=yes
endheader
                time	         pelvis_tilt	         pelvis_list	     pelvis_rotation	           pelvis_tx	           pelvis_ty	           pelvis_tz	       hip_flexion_r	     hip_adduction_r	      hip_rotation_r	        knee_angle_r	       ankle_angle_r	         mtp_angle_r	       hip_flexion_l	     hip_adduction_l	      hip_rotation_l	        knee_angle_l	       ankle_angle_l	         mtp_angle_l	    lumbar_extension	      lumbar_bending	     lumbar_rotation	 ercspn_r/activation	 intobl_r/activation	 extobl_r/activation	    abd_r/activation	    add_r/activation	hamstrings_r/activation	bifemsh_r/activation	glut_max_r/activation	iliopsoas_r/activation	rect_fem_r/activation	  vasti_r/activation	gastroc_r/activation	 soleus_r/activation	tib_ant_r/activation	 ercspn_l/activation	 intobl_l/activation	 extobl_l/activation	    abd_l/activation	    add_l/activation	hamstrings_l/activation	bifemsh_l/activation	glut_max_l/activation	iliopsoas_l/activation	rect_fem_l/activation	  vasti_l/activation	gastroc_l/activation	 soleus_l/activation	tib_ant_l/activation	
          0.61678779	         -7.92224998	          9.07853462	         -0.06997614	          0.69080232	          0.96711216	         -0.02902501	        -14.41710821	        -11.23446711	        -19.68513315	         -3.31469218	        -26.53007882	         60.15063854	         35.15587848	          8.63023490	          8.66667968	        -11.98450214	        -31.76585002	          0.69394594	         -9.42018113	         -1.03345818	         -4.78659712	          0.09691780	          0.11631364	          0.08463075	          0.05163733	          0.12635998	          0.13738635	          0.66307065	          0.08608006	          0.48508313	          0.22387348	          0.06756060	          0.55832085	          0.16960159	          0.80333334	          0.24051889	          0.82869440	          0.21391433	          0.06024855	          0.15310590	          0.14069958	          0.74977781	          0.01000028	          0.74702097	          0.27309960	          0.02076154	          0.54817746	          0.04839578	          0.95560328	
          0.62912354	         -8.38963539	          8.66165159	          0.06974608	          0.70736151	          0.96189651	         -0.02825417	        -14.70290270	        -10.66874407	        -20.70981038	         -3.78480434	        -26.55080770	         60.16045007	         36.26985427	          8.60395948	          7.62758511	        -15.63176579	        -29.80655779	          2.93139325	         -8.85205597	         -1.52775067	         -4.46243120	          0.11495259	          0.09647827	          0.15405375	          0.04283141	          0.10481138	          0.13084449	          0.63730195	          0.07140050	          0.50547268	          0.19894158	          0.07206378	          0.54888526	          0.14926921	          0.81123780	          0.21161867	          0.84874008	          0.17812317	          0.06143006	          0.12699612	          0.19111234	          0.72863879	          0.01000038	          0.62663883	          0.22652685	          0.01722100	          0.54956788	          0.06172689	          0.82144576	
          0.64145930	         -8.92316393	          8.26141443	          0.26038665	          0.72373721	          0.95669962	         -0.02746292	        -14.73439718	        -10.18988116	        -21.65729048	         -4.59922411	        -26.57364470	         60.16032832	         37.33030078	          8.46065885	          6.51318648	        -19.08811042	        -27.95984997	          7.35922563	         -8.28014466	         -2.08398303	         -4.08671038	          0.14882486	          0.08002551	          0.15647154	          0.03552721	          0.08693747	          0.12990048	          0.60639316	          0.05922430	          0.49047960	          0.17345215	          0.07345194	          0.55279316	          0.13003142	          0.81612991	          0.18246613	          0.82165837	          0.14910973	          0.06297778	          0.10533898	          0.25795755	          0.71997223	          0.05433804	          0.51977538	          0.18789637	          0.01428425	          0.55213899	          0.05445651	          0.73705370	
          0.65379506	         -9.51414304	          7.92595061	          0.51628258	          0.73964236	          0.95189272	         -0.02681210	        -14.42660773	         -9.89364622	        -22.53472051	         -5.89339798	        -26.66182850	         60.15871511	         38.31644597	          8.34999720	          5.78359639	        -22.17749520	        -26.47221944	         12.93922223	         -7.75286975	         -2.72796307	         -3.67404001	          0.19686439	          0.06637857	          0.12978796	          0.02946862	          0.07211169	          0.12136465	          0.56955324	          0.04912455	          0.48879103	          0.15415652	          0.07758876	          0.55110840	          0.11260591	          0.81943676	          0.17800598	          0.73543233	          0.12368200	          0.07529745	          0.09174936	          0.28995793	          0.71826456	          0.16066982	          0.43113585	          0.15585375	          0.01184834	          0.55307651	          0.04573370	          0.69526917	
          0.66613081	        -10.13412050	          7.62821840	          0.79657758	          0.75500066	          0.94773746	         -0.02627086	        -13.77522594	         -9.77762425	        -23.30524317	         -7.66096465	        -26.95863883	         60.15958565	         39.17497636	          8.25551945	          5.33961254	        -24.75046523	        -25.30029056	         18.22049380	         -7.30155274	         -3.41710412	         -3.19254550	          0.24650764	          0.05505895	          0.10765476	          0.02444322	          0.05981422	          0.10778517	          0.53063458	          0.04074715	          0.50084101	          0.14553724	          0.10012686	          0.55102412	          0.10120727	          0.79685160	          0.20696376	          0.65636072	          0.10259024	          0.14836540	          0.09212627	          0.24107343	          0.71188753	          0.29158623	          0.35761244	          0.12927560	          0.01000021	          0.55273447	          0.04561557	          0.66143692	
          0.67846657	        -10.75674670	          7.31473757	          1.08636159	          0.76987279	          0.94446539	         -0.02576587	        -12.91433643	         -9.74369527	        -23.94570186	         -9.61974453	        -27.68469802	         60.08617513	         39.88358339	          8.12279848	          5.01264395	        -26.84296218	        -24.36009767	         22.81733881	         -6.93082999	         -4.08847464	         -2.64073628	          0.32665822	          0.04825870	          0.08929601	          0.02027483	          0.04961388	          0.09040880	          0.50448185	          0.03379839	          0.54644606	          0.14576647	          0.16567412	          0.55124502	          0.09190125	          0.83030621	          0.28589731	          0.56642974	          0.08509526	          0.23476120	          0.09382983	          0.37142537	          0.70471678	          0.42186566	          0.29662729	          0.10723008	          0.01000050	          0.55321830	          0.04919195	          0.65782132	
          0.69080232	        -11.36227094	          6.96506705	          1.38539078	          0.78452516	          0.94220901	         -0.02518511	        -12.12764224	         -9.65251005	        -24.43527497	        -11.30957917	        -28.65654633	         59.34129593	         40.39810157	          7.94565552	          4.84374876	        -28.51193230	        -23.61245886	         26.90415635	         -6.60509503	         -4.72832511	         -2.03802360	          0.39307508	          0.05356642	          0.07406804	          0.01681729	          0.04115309	          0.08318863	          0.50181728	          0.02803463	          0.61452258	          0.13085426	          0.21256805	          0.54903739	          0.07966517	          0.89167238	          0.33125538	          0.48859152	          0.07058374	          0.30663463	          0.11197009	          0.39858320	          0.69802419	          0.52635401	          0.24604222	          0.09366580	          0.01000102	          0.55572269	          0.05419514	          0.66331401	
          0.70313808	        -11.93783572	          6.59831985	          1.68167800	          0.79916785	          0.94101479	         -0.02442976	        -11.59477094	         -9.44276237	        -24.70436372	        -12.51660423	        -29.48589077	         57.42030461	         40.69129298	          7.74678108	          4.86833857	        -29.78875395	        -23.02334564	         30.49286885	         -6.29096295	         -5.36584103	         -1.39566639	          0.45446395	          0.06660216	          0.06143696	          0.01394940	          0.03413526	          0.08262540	          0.51291716	          0.02325379	          0.68054624	          0.11321735	          0.25187504	          0.54689711	          0.06698219	          0.93526435	          0.35510474	          0.42247765	          0.05854691	          0.34737856	          0.12838523	          0.41199404	          0.68997835	          0.61570429	          0.20408365	          0.08247059	          0.01000142	          0.55942996	          0.05835956	          0.67245802	
          0.71547383	        -12.47891187	          6.20857807	          1.95371752	          0.81391491	          0.94088145	         -0.02342588	        -11.38653887	         -9.06627441	        -24.62042169	        -13.08887519	        -30.20251224	         54.45718213	         40.76395901	          7.50258610	          5.02226094	        -30.70289793	        -22.61424131	         33.67200569	         -5.96119641	         -5.99491067	         -0.70875248	          0.48561613	          0.09357087	          0.05095992	          0.01157061	          0.02831438	          0.09434297	          0.50301729	          0.01928826	          0.71372383	          0.09456620	          0.28140908	          0.54939619	          0.05555964	          0.96447725	          0.35903222	          0.36908972	          0.04856279	          0.36700220	          0.12466248	          0.43544204	          0.67533303	          0.65432178	          0.16928044	          0.07034531	          0.02325779	          0.56215657	          0.06317366	          0.68852150	
